<svg width="142" height="23" viewBox="0 0 142 23" fill="none" xmlns="http://www.w3.org/2000/svg">
<path d="M9.09375 22.4414V15.7969C8.84375 16.3125 8.41406 16.7734 7.80469 17.1797C7.20312 17.5781 6.37891 17.7773 5.33203 17.7773C3.85547 17.7773 2.59766 17.1875 1.55859 16.0078C0.519531 14.8281 0 13.2539 0 11.2852C0 9.16016 0.519531 7.46094 1.55859 6.1875C2.60547 4.91406 3.89453 4.27734 5.42578 4.27734C6.48828 4.27734 7.34766 4.53906 8.00391 5.0625C8.38672 5.35938 8.77734 5.84766 9.17578 6.52734V4.62891H12.3984V22.4414H9.09375ZM3.83203 13.3125C4.26953 14.3828 5.08203 14.918 6.26953 14.918C7.41797 14.918 8.23438 14.4258 8.71875 13.4414C9.03125 12.793 9.1875 11.9727 9.1875 10.9805C9.1875 10.1992 9.05469 9.5 8.78906 8.88281C8.3125 7.77344 7.47656 7.21875 6.28125 7.21875C5.4375 7.21875 4.75781 7.54297 4.24219 8.19141C3.73438 8.83984 3.48047 9.82422 3.48047 11.1445C3.48047 12.0273 3.59766 12.75 3.83203 13.3125Z" fill="black"/>
<path d="M23.7188 15.5742C23.6875 15.6133 23.6094 15.7305 23.4844 15.9258C23.3594 16.1211 23.2109 16.293 23.0391 16.4414C22.5156 16.9102 22.0078 17.2305 21.5156 17.4023C21.0312 17.5742 20.4609 17.6602 19.8047 17.6602C17.9141 17.6602 16.6406 16.9805 15.9844 15.6211C15.6172 14.8711 15.4336 13.7656 15.4336 12.3047V4.60547H18.8555V12.3047C18.8555 13.0312 18.9414 13.5781 19.1133 13.9453C19.418 14.5938 20.0156 14.918 20.9062 14.918C22.0469 14.918 22.8281 14.457 23.25 13.5352C23.4688 13.0352 23.5781 12.375 23.5781 11.5547V4.60547H26.9648V17.3789H23.7188V15.5742Z" fill="black"/>
<path d="M33.6328 4.60547V17.3789H30.2461V4.60547H33.6328ZM33.6328 0V3.08203H30.2461V0H33.6328Z" fill="black"/>
<path d="M47.8125 13.6289C47.7266 14.3867 47.332 15.1562 46.6289 15.9375C45.5352 17.1797 44.0039 17.8008 42.0352 17.8008C40.4102 17.8008 38.9766 17.2773 37.7344 16.2305C36.4922 15.1836 35.8711 13.4805 35.8711 11.1211C35.8711 8.91016 36.4297 7.21484 37.5469 6.03516C38.6719 4.85547 40.1289 4.26562 41.918 4.26562C42.9805 4.26562 43.9375 4.46484 44.7891 4.86328C45.6406 5.26172 46.3438 5.89062 46.8984 6.75C47.3984 7.50781 47.7227 8.38672 47.8711 9.38672C47.957 9.97266 47.9922 10.8164 47.9766 11.918H39.2344C39.2812 13.1992 39.6836 14.0977 40.4414 14.6133C40.9023 14.9336 41.457 15.0938 42.1055 15.0938C42.793 15.0938 43.3516 14.8984 43.7812 14.5078C44.0156 14.2969 44.2227 14.0039 44.4023 13.6289H47.8125ZM44.5078 9.71484C44.4531 8.83203 44.1836 8.16406 43.6992 7.71094C43.2227 7.25 42.6289 7.01953 41.918 7.01953C41.1445 7.01953 40.543 7.26172 40.1133 7.74609C39.6914 8.23047 39.4258 8.88672 39.3164 9.71484H44.5078Z" fill="black"/>
<path d="M56.0859 15V17.4961L54.5039 17.5547C52.9258 17.6094 51.8477 17.3359 51.2695 16.7344C50.8945 16.3516 50.707 15.7617 50.707 14.9648V7.10156H48.9258V4.72266H50.707V1.16016H54.0117V4.72266H56.0859V7.10156H54.0117V13.8516C54.0117 14.375 54.0781 14.7031 54.2109 14.8359C54.3438 14.9609 54.75 15.0234 55.4297 15.0234C55.5312 15.0234 55.6367 15.0234 55.7461 15.0234C55.8633 15.0156 55.9766 15.0078 56.0859 15Z" fill="black"/>
<path d="M58.3008 0.105469H61.6406V17.3789H58.3008V0.105469Z" fill="black"/>
<path d="M75.5625 6.22266C76.6406 7.57422 77.1797 9.17188 77.1797 11.0156C77.1797 12.8906 76.6406 14.4961 75.5625 15.832C74.4844 17.1602 72.8477 17.8242 70.6523 17.8242C68.457 17.8242 66.8203 17.1602 65.7422 15.832C64.6641 14.4961 64.125 12.8906 64.125 11.0156C64.125 9.17188 64.6641 7.57422 65.7422 6.22266C66.8203 4.87109 68.457 4.19531 70.6523 4.19531C72.8477 4.19531 74.4844 4.87109 75.5625 6.22266ZM70.6406 7.01953C69.6641 7.01953 68.9102 7.36719 68.3789 8.0625C67.8555 8.75 67.5938 9.73438 67.5938 11.0156C67.5938 12.2969 67.8555 13.2852 68.3789 13.9805C68.9102 14.6758 69.6641 15.0234 70.6406 15.0234C71.6172 15.0234 72.3672 14.6758 72.8906 13.9805C73.4141 13.2852 73.6758 12.2969 73.6758 11.0156C73.6758 9.73438 73.4141 8.75 72.8906 8.0625C72.3672 7.36719 71.6172 7.01953 70.6406 7.01953Z" fill="black"/>
<path d="M87.7734 15.5742C87.7422 15.6133 87.6641 15.7305 87.5391 15.9258C87.4141 16.1211 87.2656 16.293 87.0938 16.4414C86.5703 16.9102 86.0625 17.2305 85.5703 17.4023C85.0859 17.5742 84.5156 17.6602 83.8594 17.6602C81.9688 17.6602 80.6953 16.9805 80.0391 15.6211C79.6719 14.8711 79.4883 13.7656 79.4883 12.3047V4.60547H82.9102V12.3047C82.9102 13.0312 82.9961 13.5781 83.168 13.9453C83.4727 14.5938 84.0703 14.918 84.9609 14.918C86.1016 14.918 86.8828 14.457 87.3047 13.5352C87.5234 13.0352 87.6328 12.375 87.6328 11.5547V4.60547H91.0195V17.3789H87.7734V15.5742Z" fill="black"/>
<path d="M105.879 0.128906V17.3789H102.633V15.6094C102.156 16.3672 101.613 16.918 101.004 17.2617C100.395 17.6055 99.6367 17.7773 98.7305 17.7773C97.2383 17.7773 95.9805 17.1758 94.957 15.9727C93.9414 14.7617 93.4336 13.2109 93.4336 11.3203C93.4336 9.14062 93.9336 7.42578 94.9336 6.17578C95.9414 4.92578 97.2852 4.30078 98.9648 4.30078C99.7383 4.30078 100.426 4.47266 101.027 4.81641C101.629 5.15234 102.117 5.62109 102.492 6.22266V0.128906H105.879ZM96.8789 11.0742C96.8789 12.2539 97.1133 13.1953 97.582 13.8984C98.043 14.6094 98.7461 14.9648 99.6914 14.9648C100.637 14.9648 101.355 14.6133 101.848 13.9102C102.34 13.207 102.586 12.2969 102.586 11.1797C102.586 9.61719 102.191 8.5 101.402 7.82812C100.918 7.42188 100.355 7.21875 99.7148 7.21875C98.7383 7.21875 98.0195 7.58984 97.5586 8.33203C97.1055 9.06641 96.8789 9.98047 96.8789 11.0742Z" fill="black"/>
<path d="M108.996 0.105469H112.336V17.3789H108.996V0.105469Z" fill="black"/>
<path d="M116.086 5.98828C116.969 4.86328 118.484 4.30078 120.633 4.30078C122.031 4.30078 123.273 4.57812 124.359 5.13281C125.445 5.6875 125.988 6.73438 125.988 8.27344V14.1328C125.988 14.5391 125.996 15.0312 126.012 15.6094C126.035 16.0469 126.102 16.3438 126.211 16.5C126.32 16.6562 126.484 16.7852 126.703 16.8867V17.3789H123.07C122.969 17.1211 122.898 16.8789 122.859 16.6523C122.82 16.4258 122.789 16.168 122.766 15.8789C122.305 16.3789 121.773 16.8047 121.172 17.1562C120.453 17.5703 119.641 17.7773 118.734 17.7773C117.578 17.7773 116.621 17.4492 115.863 16.793C115.113 16.1289 114.738 15.1914 114.738 13.9805C114.738 12.4102 115.344 11.2734 116.555 10.5703C117.219 10.1875 118.195 9.91406 119.484 9.75L120.621 9.60938C121.238 9.53125 121.68 9.43359 121.945 9.31641C122.422 9.11328 122.66 8.79688 122.66 8.36719C122.66 7.84375 122.477 7.48438 122.109 7.28906C121.75 7.08594 121.219 6.98438 120.516 6.98438C119.727 6.98438 119.168 7.17969 118.84 7.57031C118.605 7.85938 118.449 8.25 118.371 8.74219H115.148C115.219 7.625 115.531 6.70703 116.086 5.98828ZM118.57 14.9648C118.883 15.2227 119.266 15.3516 119.719 15.3516C120.438 15.3516 121.098 15.1406 121.699 14.7188C122.309 14.2969 122.625 13.5273 122.648 12.4102V11.168C122.438 11.3008 122.223 11.4102 122.004 11.4961C121.793 11.5742 121.5 11.6484 121.125 11.7188L120.375 11.8594C119.672 11.9844 119.168 12.1367 118.863 12.3164C118.348 12.6211 118.09 13.0938 118.09 13.7344C118.09 14.3047 118.25 14.7148 118.57 14.9648Z" fill="black"/>
<path d="M135.902 17.7188C134.848 17.7188 134 17.5078 133.359 17.0859C132.977 16.8359 132.562 16.3984 132.117 15.7734V17.3789H128.848V0.128906H132.176V6.26953C132.598 5.67578 133.062 5.22266 133.57 4.91016C134.172 4.51953 134.938 4.32422 135.867 4.32422C137.547 4.32422 138.859 4.92969 139.805 6.14062C140.758 7.35156 141.234 8.91406 141.234 10.8281C141.234 12.8125 140.766 14.457 139.828 15.7617C138.891 17.0664 137.582 17.7188 135.902 17.7188ZM137.73 11.1797C137.73 10.2734 137.613 9.52344 137.379 8.92969C136.934 7.80469 136.113 7.24219 134.918 7.24219C133.707 7.24219 132.875 7.79297 132.422 8.89453C132.188 9.48047 132.07 10.2383 132.07 11.168C132.07 12.2617 132.312 13.168 132.797 13.8867C133.281 14.6055 134.02 14.9648 135.012 14.9648C135.871 14.9648 136.539 14.6172 137.016 13.9219C137.492 13.2266 137.73 12.3125 137.73 11.1797Z" fill="black"/>
</svg>
